PathFileType	4	(X/Y/Z)	jw_hip_rstar.trc	
DataRate	CameraRate	NumFrames	NumMarkers	Units	OrigDataRate	OrigDataStartFrame	OrigNumFrames	
120.00	120.00	23	8	mm	120.00	824	1647	
Frame#	Time	RAsis			LAsis			RPsis			LPsis			RThighSuperior			RThighInferior			RThighLateral			RPatella			
		X1	Y1	Z1	X2	Y2	Z2	X3	Y3	Z3	X4	Y4	Z4	X5	Y5	Z5	X6	Y6	Z6	X7	Y7	Z7	X8	Y8	Z8	

824	6.858	-384.05225	212.11978	1068.29300	-139.91278	154.44217	984.41321	-234.03525	390.87122	998.38745	-179.26596	375.00803	989.15253	-446.33240	234.02480	852.96021	-454.93347	119.15057	633.27466	-416.48322	107.63914	730.06317	-422.61960	72.06047	552.69806 
825	6.867	-383.96222	211.88333	1068.76980	-139.77034	154.56163	984.44659	-234.14345	390.88068	998.69122	-179.47475	375.05331	989.44537	-448.13916	233.71672	854.36359	-456.99982	118.60011	634.53363	-417.96811	107.09924	731.02618	-425.20029	71.70253	553.34198 
826	6.875	-383.88318	211.60411	1069.26760	-139.72229	154.58240	984.56525	-233.99518	390.91342	999.15277	-179.59789	375.07935	989.61725	-447.99808	233.62238	855.07050	-459.49274	118.08649	635.83228	-419.71649	106.84959	731.96667	-428.12958	71.13833	554.19958 
827	6.883	-383.74405	211.21181	1069.81630	-139.68546	154.59790	984.70276	-234.15237	390.79346	999.72400	-179.79868	375.10498	989.86292	-448.44226	233.36458	855.95685	-462.16040	117.75420	637.21381	-421.56360	106.56561	733.11322	-431.35364	70.82289	555.08490 
828	6.892	-383.65430	210.87608	1070.29530	-139.53712	154.58664	984.76520	-235.26695	390.19492	999.55939	-179.63449	375.48450	990.50397	-449.35632	233.36378	857.14691	-464.91983	117.31066	638.71173	-423.50684	106.35201	734.11584	-434.86105	70.64085	555.82605 
829	6.900	-383.54553	210.58965	1070.80470	-139.42842	154.53998	984.82538	-234.41096	390.58054	1000.77390	-180.24525	374.97495	990.78479	-450.37976	233.31837	858.64093	-467.91440	117.00774	640.39844	-425.58087	105.98711	735.50970	-438.35074	70.35373	556.90033 
830	6.908	-383.45657	210.18509	1071.30790	-139.36209	154.48944	984.87738	-234.32903	390.60529	1001.42970	-180.57826	374.87753	991.06683	-451.09576	233.08450	859.76105	-470.87399	116.59626	642.06934	-427.69333	105.71989	736.79584	-442.23245	69.86211	557.99506 
831	6.917	-383.27823	209.79843	1071.84470	-139.36368	154.41200	984.79736	-234.42535	390.52808	1002.21150	-180.73785	374.89331	991.40497	-451.89160	232.96896	861.00360	-474.02277	116.10806	643.75262	-429.98114	105.39276	738.19135	-446.37619	69.53609	559.17657 
832	6.925	-382.98624	209.38617	1072.20750	-139.28598	154.26753	984.71863	-234.64597	390.49667	1002.88490	-181.13867	374.81760	991.45160	-453.07263	232.85156	862.46222	-477.46408	115.82485	645.63940	-432.43555	105.06772	739.58661	-450.58411	69.09686	560.48810 
833	6.933	-382.73221	208.82291	1072.61350	-139.12427	154.15251	984.61182	-234.71910	390.35629	1003.39790	-181.55536	374.75372	991.64838	-453.92322	232.63985	863.83801	-480.89532	115.43518	647.56470	-434.94171	104.89343	740.98737	-454.92731	68.62656	561.69019 
834	6.942	-382.49222	208.44557	1073.06810	-138.90894	154.04771	984.47748	-234.79250	390.25223	1003.98040	-181.95645	374.62576	991.80231	-454.96304	232.73685	865.40662	-484.40854	114.84095	649.66595	-437.58716	104.72392	742.55273	-459.56750	68.35276	563.33051 
835	6.950	-382.13510	208.07542	1073.39120	-138.77609	153.90857	984.35077	-234.97774	390.14209	1004.53640	-182.20937	374.52795	992.15320	-456.36871	232.88455	867.02069	-488.22656	114.55750	651.83472	-440.19879	104.43861	744.23975	-464.39102	67.99849	564.86414 
836	6.958	-381.89627	207.69051	1073.79530	-138.56799	153.86855	984.16980	-235.16008	390.07648	1005.26860	-182.37613	374.55060	992.57025	-457.78891	233.21088	869.04480	-492.17484	114.32454	654.05444	-442.95462	104.14820	746.07092	-469.33661	67.68317	566.50336 
837	6.967	-381.48923	207.16508	1074.21500	-138.22801	153.77608	984.04187	-235.29402	390.00085	1005.81270	-182.63226	374.50021	992.88245	-459.01718	233.17911	870.78918	-496.26337	114.02044	656.45642	-445.96976	104.21425	747.89984	-474.46497	67.59620	568.26117 
838	6.975	-381.06970	206.64801	1074.58350	-137.82063	153.73230	983.85999	-235.30789	389.93570	1006.38620	-182.86620	374.46432	993.20532	-459.98273	233.13669	872.52637	-500.49478	114.00233	659.06165	-449.03635	104.04347	749.85278	-479.94736	67.14432	570.31885 
839	6.983	-380.74127	206.22617	1075.03890	-137.52188	153.73495	983.64935	-235.30916	389.83920	1006.87270	-182.97906	374.43515	993.52020	-461.07693	233.12833	874.31409	-504.58533	113.59666	661.73816	-452.18698	103.81780	752.08618	-485.41959	67.03302	572.50330 
840	6.992	-380.35312	205.92290	1075.49790	-137.17220	153.67967	983.52576	-235.38644	389.78156	1007.40280	-183.04805	374.31631	993.74084	-462.23260	233.46898	876.44269	-509.12570	113.58349	664.67114	-455.40857	103.75970	754.24622	-491.06003	66.83603	574.81104 
841	7.000	-379.94608	205.50153	1075.99910	-136.72981	153.66258	983.33130	-235.34377	389.69962	1007.79850	-183.00293	374.31827	993.99792	-463.61081	233.67310	878.27454	-513.59747	113.48302	667.71045	-458.85458	103.71595	756.52643	-496.69534	66.66845	577.37689 
842	7.008	-379.43246	205.17979	1076.41490	-136.35902	153.69284	983.15302	-235.27631	389.58008	1008.19890	-182.96104	374.24576	994.27008	-464.97104	233.99680	880.71411	-518.16638	113.42574	670.73431	-462.16745	103.53565	758.96826	-502.44965	66.47339	579.90326 
843	7.017	-378.98819	204.80286	1076.72900	-136.01823	153.69135	982.83868	-235.22501	389.51239	1008.64840	-182.95511	374.17383	994.51904	-466.11743	234.10493	882.57611	-522.74969	113.26276	673.95569	-465.45416	103.46371	761.55768	-508.38040	66.25684	582.65234 
844	7.025	-378.39816	204.27698	1077.03640	-135.60033	153.64990	982.54657	-235.30704	389.37729	1008.99890	-182.96895	374.08096	994.73096	-467.26083	234.32397	884.71063	-527.27631	113.08515	677.04498	-468.79852	103.25417	763.89404	-514.25177	66.16367	585.28400 
845	7.033	-377.91632	203.71008	1077.44740	-135.10696	153.53958	982.25806	-235.20096	389.26151	1009.36360	-182.89240	374.00150	994.93475	-468.67502	234.61121	887.04553	-531.86926	112.85547	680.37543	-472.10532	103.06998	766.46478	-520.01746	65.77411	588.05780 
846	7.042	-377.35461	203.26816	1077.61550	-134.63721	153.43152	982.00751	-235.10315	389.16083	1009.75160	-182.81407	373.93588	995.11414	-469.72229	234.73453	889.02460	-536.41571	112.67702	683.76740	-475.48059	102.94983	769.07477	-526.00403	65.81018	591.02106 
